<svg width="13" height="17" viewBox="0 0 13 17" fill="none" xmlns="http://www.w3.org/2000/svg">
<path d="M12.0013 4.9375C12.0013 2.35266 9.89278 0.25 7.30077 0.25H0.25V16.6562H7.30077C9.89278 16.6562 12.0013 14.5536 12.0013 11.9688C12.0013 10.5698 11.3828 9.31281 10.4048 8.45312C11.3828 7.59344 12.0013 6.33643 12.0013 4.9375ZM9.65102 11.9688C9.65102 13.2612 8.59678 14.3125 7.30077 14.3125H2.60026V9.625H7.30077C8.59678 9.625 9.65102 10.6763 9.65102 11.9688ZM2.60026 7.28125V2.59375H7.30077C8.59678 2.59375 9.65102 3.64508 9.65102 4.9375C9.65102 6.22992 8.59678 7.28125 7.30077 7.28125H2.60026Z" fill="#070707" stroke="#070707" stroke-width="0.5"/>
</svg>
